<?xml version="1.0" standalone="no"?>
<!DOCTYPE svg PUBLIC "-//W3C//DTD SVG 20010904//EN"
 "http://www.w3.org/TR/2001/REC-SVG-20010904/DTD/svg10.dtd">
<svg version="1.0" xmlns="http://www.w3.org/2000/svg"
 width="466.000000pt" height="440.000000pt" viewBox="0 0 466.000000 440.000000"
 preserveAspectRatio="xMidYMid meet">

<g transform="translate(0.000000,440.000000) scale(0.100000,-0.100000)"
fill="#000000" stroke="none">
<path d="M3265 4310 c-3 -5 -24 -10 -45 -10 -21 0 -42 -4 -45 -10 -3 -5 -17
-10 -31 -10 -13 0 -34 -5 -47 -12 -48 -24 -57 -28 -77 -28 -11 0 -20 -4 -20
-10 0 -5 -9 -10 -20 -10 -11 0 -20 -4 -20 -9 0 -5 -8 -11 -17 -14 -29 -9 -77
-41 -91 -59 -7 -10 -17 -18 -22 -18 -22 0 -170 -146 -170 -167 0 -7 -4 -13 -8
-13 -5 0 -15 -18 -22 -40 -25 -76 -50 -79 -137 -14 -62 47 -144 93 -215 123
-16 6 -38 15 -50 20 -66 27 -162 42 -297 48 -73 3 -118 0 -124 -6 -6 -6 -35
-11 -63 -11 -29 0 -56 -4 -59 -10 -3 -5 -21 -10 -40 -10 -19 0 -37 -4 -40 -10
-3 -5 -15 -10 -26 -10 -10 0 -19 -4 -19 -10 0 -5 -9 -10 -20 -10 -11 0 -20 -4
-20 -10 0 -5 -9 -10 -20 -10 -11 0 -20 -4 -20 -10 0 -5 -6 -10 -12 -10 -50 -1
-367 -335 -368 -387 0 -7 -4 -13 -10 -13 -5 0 -10 -9 -10 -20 0 -11 -4 -20
-10 -20 -5 0 -10 -9 -10 -20 0 -11 -4 -20 -10 -20 -5 0 -10 -13 -10 -29 0 -17
-4 -33 -10 -36 -5 -3 -10 -23 -10 -43 0 -24 -8 -46 -24 -64 -20 -24 -31 -28
-74 -28 -28 0 -54 -4 -57 -10 -3 -5 -24 -10 -45 -10 -21 0 -42 -4 -45 -10 -3
-5 -17 -10 -30 -10 -13 0 -27 -4 -30 -10 -3 -5 -15 -10 -26 -10 -10 0 -19 -4
-19 -10 0 -5 -11 -10 -25 -10 -14 0 -25 -3 -25 -8 0 -4 -9 -12 -19 -17 -46
-23 -150 -101 -199 -149 -56 -53 -142 -160 -142 -175 0 -5 -7 -14 -15 -21 -9
-7 -22 -29 -31 -49 -9 -20 -20 -44 -25 -53 -5 -10 -9 -25 -9 -33 0 -8 -4 -15
-10 -15 -5 0 -10 -13 -10 -29 0 -17 -4 -33 -10 -36 -5 -3 -10 -21 -10 -39 0
-17 -5 -37 -11 -43 -6 -6 -8 -64 -6 -164 5 -163 13 -236 28 -245 5 -3 9 -16 9
-30 0 -13 4 -32 9 -42 5 -9 21 -43 36 -74 76 -166 240 -329 402 -402 38 -17
42 -22 36 -45 -3 -14 -24 -47 -47 -73 -73 -82 -92 -106 -104 -130 -22 -41 -37
-65 -51 -82 -17 -21 -46 -71 -68 -118 -10 -21 -21 -38 -25 -38 -5 0 -8 -7 -8
-15 0 -8 -5 -25 -12 -38 -24 -48 -28 -57 -28 -77 0 -11 -4 -20 -10 -20 -5 0
-10 -15 -10 -34 0 -19 -4 -38 -10 -41 -5 -3 -10 -28 -10 -55 0 -27 -5 -52 -10
-55 -13 -8 -13 -299 -1 -323 5 -9 15 -36 22 -60 7 -23 24 -54 38 -69 53 -54
47 -53 643 -53 485 0 556 2 576 16 36 25 27 53 -35 114 -68 64 -212 141 -318
168 -100 25 -138 32 -180 32 -25 0 -45 5 -45 10 0 6 -13 10 -30 10 -89 0 32
52 173 75 108 17 344 24 853 24 l372 1 20 47 c11 27 41 129 67 228 25 99 47
184 49 189 1 6 13 -12 26 -40 23 -45 24 -59 23 -194 -1 -90 -6 -146 -13 -148
-5 -2 -10 -15 -10 -28 0 -13 -4 -32 -8 -42 -12 -23 -33 -63 -46 -86 -21 -37
-61 -78 -91 -93 -16 -9 -37 -24 -46 -34 -9 -11 -24 -19 -33 -19 -9 0 -16 -4
-16 -10 0 -5 -6 -10 -13 -10 -7 0 -23 -9 -35 -20 -12 -11 -28 -20 -37 -20 -8
0 -15 -4 -15 -10 0 -5 -9 -10 -20 -10 -11 0 -20 -4 -20 -10 0 -5 -6 -10 -14
-10 -16 0 -140 -62 -144 -72 -2 -5 -9 -8 -16 -8 -21 0 -48 -37 -44 -62 2 -15
16 -30 43 -43 37 -18 60 -20 295 -20 281 1 372 12 506 64 195 76 370 254 512
521 84 157 138 352 170 613 l17 142 19 -50 c10 -28 23 -54 27 -59 5 -6 9 -27
9 -47 0 -21 5 -41 11 -45 7 -4 9 -27 5 -68 -4 -33 -9 -90 -12 -126 -3 -36 -10
-69 -15 -75 -5 -5 -9 -24 -9 -41 0 -18 -4 -36 -10 -39 -5 -3 -10 -19 -10 -35
0 -16 -4 -32 -10 -35 -5 -3 -10 -17 -10 -30 0 -13 -4 -27 -10 -30 -12 -8 -13
-75 -1 -75 20 0 131 93 212 177 247 256 388 610 418 1048 23 330 -38 665 -190
1048 -46 114 -50 177 -19 243 35 71 95 116 288 213 165 84 185 96 245 160 116
123 186 305 158 408 -6 23 -23 55 -36 71 -32 38 -72 45 -286 48 -145 2 -171 5
-209 23 -24 12 -50 21 -57 21 -7 0 -13 5 -13 10 0 6 -8 10 -18 10 -10 0 -22 4
-28 8 -12 11 -98 36 -207 61 -60 14 -394 15 -402 1z m375 -312 c20 -14 38 -38
47 -62 12 -35 11 -43 -4 -75 -23 -46 -83 -62 -138 -35 -43 20 -58 45 -58 96 0
82 84 123 153 76z m-1600 -224 c94 -22 215 -85 290 -150 90 -79 110 -111 110
-176 0 -30 -4 -58 -9 -63 -9 -10 -15 -68 -27 -260 -3 -49 -10 -94 -15 -100 -5
-5 -9 -35 -9 -66 0 -32 -4 -61 -10 -64 -5 -3 -10 -26 -10 -51 0 -24 -4 -44
-10 -44 -5 0 -10 -13 -10 -29 0 -17 -4 -33 -10 -36 -5 -3 -10 -22 -10 -41 0
-19 -4 -34 -10 -34 -5 0 -10 -11 -10 -23 0 -28 -24 -80 -45 -97 -8 -7 -15 -19
-15 -26 0 -8 -4 -14 -8 -14 -5 0 -15 -12 -23 -27 -8 -15 -19 -35 -26 -43 -7
-8 -26 -34 -43 -58 -17 -24 -51 -57 -76 -75 -26 -18 -57 -42 -71 -54 -13 -13
-31 -23 -39 -23 -7 0 -14 -4 -14 -10 0 -5 -7 -10 -15 -10 -8 0 -15 -4 -15 -10
0 -5 -7 -10 -15 -10 -8 0 -15 -4 -15 -10 0 -5 -9 -10 -20 -10 -11 0 -20 -4
-20 -10 0 -5 -9 -10 -20 -10 -11 0 -20 -4 -20 -10 0 -5 -9 -10 -20 -10 -11 0
-20 -4 -20 -10 0 -5 -9 -10 -20 -10 -11 0 -20 -4 -20 -10 0 -5 -11 -10 -24
-10 -14 0 -28 -4 -31 -10 -3 -5 -15 -10 -26 -10 -10 0 -19 -4 -19 -10 0 -5 -7
-10 -15 -10 -8 0 -23 -4 -33 -9 -9 -5 -30 -14 -47 -21 -16 -7 -38 -16 -47 -21
-10 -5 -27 -9 -38 -9 -11 0 -20 -4 -20 -10 0 -5 -7 -10 -15 -10 -8 0 -24 -4
-35 -10 -11 -5 -29 -15 -40 -20 -11 -6 -27 -10 -35 -10 -8 0 -15 -4 -15 -10 0
-5 -9 -10 -20 -10 -11 0 -20 -4 -20 -10 0 -5 -9 -10 -20 -10 -11 0 -20 -4 -20
-10 0 -5 -9 -10 -20 -10 -11 0 -20 -4 -20 -10 0 -5 -5 -10 -11 -10 -6 0 -23
-8 -37 -19 -48 -33 -87 -38 -172 -21 -30 6 -73 13 -95 17 -22 3 -44 9 -50 14
-5 5 -16 9 -25 9 -32 0 -152 71 -195 115 -106 107 -175 276 -175 430 0 262
184 498 456 585 113 36 187 39 298 10 122 -31 140 -12 130 137 -13 202 39 348
175 484 87 87 165 134 271 166 91 27 215 30 310 7z"/>
<path d="M3816 983 c-31 -31 -56 -62 -56 -68 0 -13 -125 -135 -138 -135 -6 0
-28 -17 -49 -38 -21 -21 -50 -44 -65 -51 -21 -11 -28 -22 -28 -42 0 -57 188
-182 335 -225 50 -14 115 -18 400 -21 186 -3 354 -2 372 2 44 8 63 30 63 72 0
57 -54 99 -215 168 -202 87 -318 166 -475 328 -36 37 -71 67 -77 67 -6 0 -36
-26 -67 -57z"/>
</g>
</svg>
